<svg id="Capa_1" enable-background="new 0 0 512 512" height="512" viewBox="0 0 512 512" width="512" xmlns="http://www.w3.org/2000/svg"><g><circle cx="428.51" cy="431.37" r="10"/><path d="m467.78 112.13c-13.95-20.48-30.761-38.82-49.971-54.51-19.35-15.81-40.83-28.66-63.819-38.19-.02-.008-.041-.014-.062-.022-31.067-12.878-64.013-19.408-97.928-19.408-68.379 0-132.666 26.629-181.019 74.981s-74.981 112.64-74.981 181.019c0 51.616 15.293 101.367 44.226 143.873 28.228 41.47 67.556 73.515 113.735 92.673.017.007.032.016.049.023 15.22 6.31 31.13 11.16 47.31 14.41 16.58 3.33 33.631 5.02 50.69 5.02 51.4 0 100.97-15.17 143.35-43.88 4.57-3.09 5.761-9.32 2.671-13.88-1.86-2.76-4.961-4.4-8.29-4.4-2 0-3.931.6-5.591 1.72-39.081 26.451-84.77 40.441-132.15 40.441-27.851 0-55.11-4.8-81.01-14.27l17.862-43.125 12.928 31.221c1.277 3.086 4.012 5.33 7.288 5.982 3.278.653 6.661-.375 9.022-2.736l33.91-33.91 33.909 33.909c3.435 3.366 8.374 2.866 9.022 2.736 3.276-.652 6.01-2.896 7.288-5.982l18.344-44.3 44.29 18.343c3.084 1.279 6.604.931 9.382-.924 2.777-1.855 4.444-4.975 4.444-8.314v-47.95h47.95c3.34 0 6.459-1.667 8.314-4.444s2.202-6.296.925-9.382l-18.344-44.291 44.301-18.344c3.086-1.278 5.33-4.012 5.981-7.288.652-3.276-.375-6.661-2.736-9.023l-33.908-33.908 33.909-33.909c2.361-2.362 3.389-5.747 2.736-9.023-.651-3.275-2.896-6.01-5.981-7.288l-44.301-18.344 18.344-44.291c1.277-3.085.931-6.605-.925-9.382-1.855-2.777-4.975-4.444-8.314-4.444h-47.95v-47.949c0-3.34-1.667-6.459-4.444-8.314-2.776-1.855-6.298-2.204-9.382-.924l-31.225 12.932 17.861-43.124c82.94 38.62 136.52 122.64 136.51 214.06 0 48.76-14.75 95.56-42.641 135.34-1.529 2.19-2.13 4.84-1.659 7.47.46 2.63 1.92 4.93 4.109 6.46 1.69 1.19 3.67 1.81 5.73 1.81 3.26 0 6.319-1.59 8.2-4.25 0-.01 0-.01 0-.01 14.77-21.05 26.22-44.11 34.06-68.52 8.1-25.23 12.2-51.58 12.2-78.3-.009-51.62-15.299-101.37-44.219-143.87zm-284.707 293.797c-65.118-16.131-111.573-75.401-111.573-143.927 0-76.204 58.091-139.096 132.313-146.724-16.074 11.027-29.812 23.8-40.563 37.821-17.5 22.82-26.75 48.375-26.75 73.903 0 52.435 27.462 93.787 74.058 112.571zm123.139-245.011c35.106 18.497 57.288 54.812 57.288 95.084 0 59.276-48.225 107.5-107.5 107.5-10.877 0-21.51-1.596-31.727-4.755zm-286.212 95.084c0-130.131 105.869-236 236-236 27.924 0 55.127 4.797 81.013 14.272l-118.793 286.801c-38.829-15.686-61.72-50.234-61.72-94.073 0-43.878 33.789-86.781 88.182-111.965 4.028-1.865 6.345-6.162 5.689-10.552s-4.127-7.822-8.524-8.429c-7.475-1.031-15.161-1.554-22.847-1.554-92.359 0-167.5 75.14-167.5 167.5 0 76.724 51.398 143.229 123.847 162.581l-18.841 45.487c-83.25-38.665-136.506-121.624-136.506-214.068zm342.68-159.665v42.984c0 5.523 4.478 10 10 10h42.985l-16.444 39.704c-1.015 2.45-1.015 5.204.001 7.654 1.015 2.45 2.962 4.397 5.412 5.412l39.711 16.443-30.396 30.396c-1.875 1.875-2.929 4.419-2.929 7.071s1.054 5.196 2.929 7.071l30.396 30.396-39.711 16.443c-2.45 1.015-4.397 2.961-5.412 5.412-1.016 2.45-1.016 5.204-.001 7.654l16.444 39.704h-42.985c-5.522 0-10 4.477-10 10v42.984l-39.703-16.443c-2.449-1.016-5.204-1.015-7.653 0-2.451 1.015-4.397 2.962-5.412 5.413l-16.443 39.711-30.396-30.396c-3.906-3.905-10.236-3.905-14.143 0l-30.396 30.396-14.855-35.875 12.917-31.186c12.669 4.124 25.881 6.215 39.406 6.215 70.304 0 127.5-57.196 127.5-127.5 0-48.394-27.014-91.966-69.61-113.624l12.916-31.184z"/><circle cx="279" cy="92" r="10"/><circle cx="226" cy="58" r="10"/><circle cx="227" cy="166" r="10"/><circle cx="228" cy="209" r="10"/><circle cx="192" cy="230" r="10"/></g></svg>